<svg width="512" height="512" xmlns="http://www.w3.org/2000/svg">

 <g>
  <title>background</title>
  <rect fill="none" id="canvas_background" height="602" width="802" y="-1" x="-1"/>
 </g>
 <g>
  <title>Layer 1</title>
  <g id="svg_1">
   <path id="svg_2" fill="#9a0007" d="m512,256c0,124.89 -89.44,228.89 -207.75,251.46c-3.31,0.63 -6.64,1.2 -9.99,1.7c-12.48,1.87 -25.26,2.84 -38.26,2.84c-22.45,0 -44.23,-2.89 -64.98,-8.32c-6.78,-1.77 -13.44,-3.82 -19.99,-6.13c-99.62,-35.03 -171.03,-129.96 -171.03,-241.55c0,-19.06 2.08,-37.64 6.04,-55.51c25.35,-114.69 127.64,-200.49 249.96,-200.49c31.25,0 61.2,5.6 88.89,15.86c97.57,36.13 167.11,130.01 167.11,240.14z"/>
   <path id="svg_3" fill="#ff6659" d="m380.32,127.71c0,107.25 -86.94,194.19 -194.19,194.19c-81.51,0 -151.29,-50.22 -180.09,-121.41c25.35,-114.69 127.64,-200.49 249.96,-200.49c31.25,0 61.2,5.6 88.89,15.86c22.32,31.62 35.43,70.2 35.43,111.85z"/>
   <g id="svg_4">
    <g id="svg_5">
     <path id="svg_6" fill="#2d2667" d="m203.718,66.728c1.078,-2.834 4.719,-3.613 6.863,-1.47l19.48,19.48c16.163,16.163 10.108,48.427 -13.516,72.051s-55.888,29.678 -72.051,13.516l-19.48,-19.48c-2.144,-2.144 -1.364,-5.785 1.47,-6.863l54.198,-20.615c1.116,-0.424 1.997,-1.305 2.421,-2.421l20.615,-54.198z"/>
     <g id="svg_7">
      <path id="svg_8" fill="#57409b" d="m216.079,147.143c-4.588,4.475 -11.805,-1.376 -8.259,-6.814c9.944,-14.752 13.466,-30.75 9.42,-42.796c-0.946,-2.816 0.568,-5.865 3.386,-6.81c2.816,-0.946 5.865,0.57 6.81,3.386c5.172,15.289 0.962,35.828 -11.357,53.034z"/>
     </g>
    </g>
    <g id="svg_9">
     <path id="svg_10" fill="#57409b" d="m225.041,31.131l-36.182,95.108c-0.502,1.32 -1.545,2.363 -2.866,2.866l-95.108,36.182c-3.992,1.519 -7.903,-2.393 -6.385,-6.385l36.182,-95.108c0.502,-1.32 1.545,-2.363 2.866,-2.866l95.108,-36.182c3.992,-1.518 7.904,2.393 6.385,6.385z"/>
     <g id="svg_11">
      <path id="svg_12" fill="#6c53a2" d="m201.381,53.643c-0.575,0.575 -1.277,1.039 -2.086,1.347l-59.033,22.458c-3.065,1.166 -6.494,-0.373 -7.66,-3.438s0.374,-6.493 3.438,-7.66l59.033,-22.458c5.971,-2.246 10.77,5.298 6.308,9.751z"/>
     </g>
    </g>
    <g id="svg_13">
     <g id="svg_14">
      <path id="svg_15" fill="#2d2667" d="m116.912,173.359l-19.979,19.979l-6.845,-6.845l20.94,-20.94c1.706,-1.706 4.604,-1.085 5.462,1.17l1.18,3.102c0.465,1.223 0.169,2.607 -0.758,3.534z"/>
     </g>
     <path id="svg_16" fill="#2d2667" d="m101.372,203.534c-5.753,5.833 -15.519,6.008 -21.479,0c-13.685,-14.812 6.682,-35.161 21.487,-21.487c5.854,5.706 5.953,15.615 -0.008,21.487z"/>
     <path id="svg_17" fill="#2d2667" d="m72.112,227.82c-1.286,-0.318 -2.39,-0.954 -3.362,-1.917c0,0 -11.226,-11.226 -11.226,-11.226c-3.795,-3.795 -2.373,-10.238 2.654,-12.086l14.421,-5.309c2.693,-0.989 5.712,-0.327 7.735,1.696l2.114,2.114c2.004,2.006 2.692,5.056 1.696,7.735c0,0 -5.309,14.421 -5.309,14.421c-1.368,3.727 -5.27,5.469 -8.723,4.572z"/>
     <g id="svg_18" fill="#57409b">
      <path id="svg_19" d="m72.112,227.82c-0.365,-1.415 -0.304,-2.936 0.221,-4.358l5.309,-14.421c1.377,-3.735 5.271,-5.469 8.724,-4.571c0.365,1.415 0.304,2.936 -0.221,4.358l-5.309,14.421c-1.369,3.726 -5.271,5.468 -8.724,4.571z"/>
      <path id="svg_20" d="m101.372,203.534c-1.384,1.384 -2.959,2.442 -4.655,3.179c-6.095,-1.358 -8.115,-8.72 -4.845,-14.839c2.7,-5.028 8.032,-7.499 12.344,-5.91c2.885,5.693 1.852,12.886 -2.844,17.57z"/>
     </g>
    </g>
   </g>
   <g id="Person_4_">
    <g id="svg_21">
     <path id="svg_22" fill="#2d2667" d="m342.444,421.222c-18.975,0 -44.223,-10.467 -84.102,-33.996l16.77,-28.422c47.732,28.164 65.144,31.191 71.335,28.769c9.732,-4.217 17.808,-44.454 24.182,-60.89l31.256,10.587c-12.655,35.63 -17.315,84.16 -59.441,83.952z"/>
    </g>
    <g id="Hand_2_">
     <path id="svg_23" fill="#a26d5a" d="m370.404,326.057c0.003,7.387 5.988,13.394 13.39,13.39l36.36,0c7.461,0.02 13.418,-6.142 13.39,-13.39c-0.002,-7.402 -5.988,-13.388 -13.39,-13.39l-36.36,0c-7.252,-0.028 -13.407,5.922 -13.39,13.39z"/>
     <path id="svg_24" fill="#d48d77" d="m376.404,320.057c0.003,7.387 5.988,13.394 13.39,13.39l36.36,0c2.15,0 4.17,-0.5 5.97,-1.4c4.525,-8.617 -2.18,-19.563 -11.97,-19.38l-36.36,0c-2.15,0 -4.18,0.51 -5.98,1.41c-0.9,1.8 -1.41,3.83 -1.41,5.98z"/>
    </g>
    <g id="Arm_4_">
     <path id="svg_25" fill="#2d2667" d="m185.114,399.2c-66.155,0.465 -86.142,-32.693 -95.214,-90.097c-1.893,-10.111 -4.416,-21.991 -6.989,-32.307l34.626,2.934c14.231,64.504 7.59,93.057 90.813,85.218l3.225,32.842c-9.528,0.935 -18.328,1.41 -26.461,1.41z"/>
    </g>
    <g id="Hand_3_">
     <path id="svg_26" fill="#a26d5a" d="m113.778,290.77c-5.226,5.222 -13.705,5.237 -18.936,0c0,0 -25.71,-25.71 -25.71,-25.71c-5.29,-5.261 -5.146,-13.831 0,-18.936c5.236,-5.233 13.7,-5.233 18.936,0l25.71,25.71c5.148,5.108 5.293,13.667 0,18.936z"/>
     <path id="svg_27" fill="#d48d77" d="m113.778,282.285c-5.226,5.222 -13.705,5.237 -18.936,0c0,0 -25.71,-25.71 -25.71,-25.71c-1.52,-1.52 -2.595,-3.302 -3.232,-5.211c2.894,-9.293 15.374,-12.292 22.168,-5.239c0,0 25.71,25.71 25.71,25.71c1.52,1.52 2.595,3.316 3.231,5.225c-0.636,1.909 -1.711,3.705 -3.231,5.225z"/>
    </g>
    <g id="Body_4_">
     <path id="svg_28" fill="#2d2667" d="m304.25,413.07l0,94.39c-44.045,8.486 -91.329,4.992 -133.22,-9.91l0,-84.48c0,-4.91 0.53,-9.69 1.54,-14.29c2.75,-12.59 9.06,-23.85 17.82,-32.67c42.073,-41.873 113.505,-12.493 113.86,46.96z"/>
     <path id="svg_29" fill="#6c53a2" d="m304.25,413.07l0,94.39c-36.88,7.163 -77.35,5.756 -113.23,-3.78c0.527,-9.666 -1.402,-97.475 1.45,-104.48c5.036,-24.853 25.408,-45.541 50.15,-51.03c1.654,-0.375 3.326,-0.722 5.02,-0.97c2.03,0.3 4.02,0.7 5.99,1.19c29.415,7.043 50.877,34.486 50.62,64.68z"/>
     <path id="svg_30" fill="#57409b" d="m294.26,413.07l0,96.09c-33.795,5.183 -70.68,3.181 -103.24,-5.48c0.527,-9.666 -1.402,-97.475 1.45,-104.48c4.893,-24.057 24.135,-44.306 47.89,-50.46c0.751,-0.204 1.51,-0.386 2.27,-0.57c3.11,0.72 6.13,1.65 9.05,2.79c25.331,9.665 42.754,34.753 42.58,62.11z"/>
    </g>
    <g id="HEAD_5_">
     <g id="Ears_4_">
      <path id="svg_31" fill="#c17e62" d="m202.281,294.217c0.734,8.912 -6.136,16.832 -15.187,16.783l-12.83,0c-20.305,-0.496 -20.305,-31.474 0,-31.97l12.83,0c8.387,0 15.187,6.8 15.187,15.187z"/>
      <path id="svg_32" fill="#c17e62" d="m316.218,294.217c0.734,8.912 -6.136,16.832 -15.187,16.783l-12.83,0c-20.305,-0.496 -20.305,-31.474 0,-31.97l12.83,0c8.388,0 15.187,6.8 15.187,15.187z"/>
      <g id="svg_33" fill="#a26d5a">
       <path id="svg_34" d="m207.664,295.015c0,3.517 -2.851,6.369 -6.369,6.369l-23.891,0c-3.517,0 -6.369,-2.851 -6.369,-6.369s2.851,-6.369 6.369,-6.369l23.891,0c3.517,0.001 6.369,2.852 6.369,6.369z"/>
       <path id="svg_35" d="m304.259,295.015c0,3.517 -2.851,6.369 -6.369,6.369l-23.89,0c-3.517,0 -6.369,-2.851 -6.369,-6.369s2.851,-6.369 6.369,-6.369l23.891,0c3.517,0.001 6.368,2.852 6.368,6.369z"/>
      </g>
     </g>
     <g id="Neck_4_">
      <g id="svg_36">
       <path id="svg_37" fill="#a26d5a" d="m253.635,335.917l0,15.9c0.047,8.884 -7.383,16.056 -15.99,15.98c-8.83,0 -15.98,-7.15 -15.98,-15.98l0,-15.9c-0.152,-10.304 10.073,-18.155 19.98,-15.48c6.981,1.821 11.985,8.081 11.99,15.48z"/>
      </g>
      <g id="svg_38">
       <path id="svg_39" fill="#c17e62" d="m253.635,335.917l0,15.9c0,7.45 -5.1,13.7 -11.99,15.48c-6.89,-1.78 -11.99,-8.03 -11.99,-15.48l0,-15.9c0,-7.45 5.1,-13.7 11.99,-15.48c6.981,1.821 11.985,8.081 11.99,15.48z"/>
      </g>
      <g id="svg_40">
       <path id="svg_41" fill="#a26d5a" d="m253.635,335.917l0,14.64c-3.74,0.85 -7.64,1.3 -11.64,1.3c-6.31,0.005 -14.247,0.273 -20.33,-1.3l0,-14.64c-0.152,-10.304 10.073,-18.154 19.98,-15.48c6.981,1.82 11.985,8.081 11.99,15.48z"/>
      </g>
      <g id="svg_42">
       <path id="svg_43" fill="none" d="m253.635,335.917l0,15.9c0.047,8.884 -7.383,16.056 -15.99,15.98c-8.83,0 -15.98,-7.15 -15.98,-15.98l0,-15.9c-0.152,-10.304 10.073,-18.155 19.98,-15.48c6.981,1.821 11.985,8.081 11.99,15.48z"/>
      </g>
     </g>
     <g id="Face_4_">
      <g id="svg_44">
       <path id="svg_45" fill="#c17e62" d="m294.615,255.227l0,36.02c0.107,29.116 -23.95,52.753 -52.62,52.62l-8.69,0c-29.07,0 -52.63,-23.56 -52.63,-52.62l0,-36.02c0,-29.06 23.56,-52.62 52.63,-52.62l8.69,0c28.67,-0.13 52.726,23.502 52.62,52.62z"/>
      </g>
      <g id="svg_46">
       <path id="svg_47" fill="#d48d77" d="m294.615,255.227l0,36.02c0,27.66 -21.35,50.34 -48.47,52.46c-27.12,-2.11 -48.48,-24.79 -48.48,-52.46l0,-36.02c0,-27.67 21.36,-50.35 48.48,-52.46c27.12,2.12 48.47,24.8 48.47,52.46z"/>
      </g>
     </g>
     <path id="svg_48" fill="#a26d5a" d="m237.647,318.587c-6.594,0 -12.557,-2.021 -15.562,-5.275c-1.746,-1.96 1.118,-4.616 2.939,-2.714c4.583,5.253 20.665,5.251 25.246,0c1.805,-1.9 4.695,0.751 2.938,2.714c-3.004,3.253 -8.967,5.275 -15.561,5.275z"/>
     <path id="svg_49" fill="#c17e62" d="m246.412,300.529l-17.529,0c-2.624,-0.043 -2.633,-3.955 0,-4l17.529,0c2.623,0.043 2.633,3.955 0,4z"/>
     <g id="Eyes_5_">
      <path id="svg_50" fill="#eab39b" d="m223.556,280.816c0,-4.32 -3.502,-7.822 -7.822,-7.822c-10.364,0.383 -10.361,15.261 0,15.643c4.32,0.001 7.822,-3.501 7.822,-7.821z"/>
      <path id="svg_51" fill="#eab39b" d="m267.382,280.816c0,-4.32 -3.502,-7.822 -7.822,-7.822c-10.364,0.383 -10.361,15.261 0,15.643c4.321,0.001 7.822,-3.501 7.822,-7.821z"/>
      <path id="svg_52" fill="#122894" d="m223.022,283.736c0,-4.025 -3.263,-7.288 -7.288,-7.288c-9.647,0.333 -9.644,14.243 0,14.575c4.025,0 7.288,-3.262 7.288,-7.287z"/>
      <path id="svg_53" fill="#e8f3fc" d="m220.832,283.887c3.374,-3.549 -1.701,-8.622 -5.249,-5.249c-3.374,3.549 1.701,8.622 5.249,5.249z"/>
      <path id="svg_54" fill="#122894" d="m266.848,283.736c0,-4.025 -3.263,-7.288 -7.288,-7.288c-9.647,0.333 -9.645,14.243 0,14.575c4.026,0 7.288,-3.262 7.288,-7.287z"/>
      <path id="svg_55" fill="#e8f3fc" d="m264.659,283.887c3.374,-3.549 -1.701,-8.622 -5.249,-5.249c-3.374,3.549 1.701,8.622 5.249,5.249z"/>
     </g>
    </g>
    <g id="Glasses_3_">
     <g id="Glasses_4_">
      <path id="svg_56" fill="#e8f3fc" d="m278.005,270.343c-8.009,-3.457 -20.699,-3.454 -28.695,0c-1.835,0.724 -3.034,2.485 -3.034,4.458l0,10.746c0.915,23.054 33.85,23.051 34.763,0l0,-10.745c0,-1.974 -1.199,-3.734 -3.034,-4.459z"/>
      <path id="svg_57" fill="#6c53a2" d="m263.657,304.936c-10.691,0 -19.389,-8.698 -19.389,-19.389l4.015,0c0.847,20.401 29.908,20.385 30.748,0l4.015,0c0,10.691 -8.698,19.389 -19.389,19.389z"/>
      <path id="svg_58" fill="#2d2667" d="m283.046,285.547l-4.015,0l0,-10.746c0,-1.151 -0.692,-2.168 -1.763,-2.591c-7.527,-3.273 -19.71,-3.267 -27.221,0c-1.071,0.423 -1.764,1.439 -1.764,2.591l0,10.746l-4.015,0l0,-10.746c0,-2.811 1.69,-5.293 4.305,-6.325c3.217,-1.27 8.445,-2.784 15.084,-2.784c6.638,0 11.867,1.514 15.084,2.784c2.615,1.032 4.304,3.515 4.304,6.325l0,10.746l0.001,0z"/>
      <path id="svg_59" fill="#e8f3fc" d="m225.356,270.291c-7.944,-3.389 -20.498,-3.385 -28.428,0c-1.919,0.748 -3.167,2.594 -3.167,4.655l0,10.601c0.914,23.053 33.849,23.052 34.763,0l0,-10.601c0,-2.06 -1.248,-3.907 -3.168,-4.655z"/>
      <path id="svg_60" fill="#6c53a2" d="m211.143,304.936c-10.691,0 -19.389,-8.698 -19.389,-19.389l4.015,0c0.847,20.401 29.908,20.385 30.748,0l4.015,0c-0.001,10.691 -8.699,19.389 -19.389,19.389z"/>
      <g id="svg_61" fill="#2d2667">
       <path id="svg_62" d="m230.531,285.547l-4.015,0l0,-10.601c0,-1.244 -0.742,-2.337 -1.889,-2.785c-7.45,-3.206 -19.535,-3.201 -26.97,0c-1.148,0.447 -1.889,1.54 -1.889,2.784l0,10.601l-4.015,0l0,-10.601c0,-2.912 1.745,-5.473 4.446,-6.525c3.192,-1.245 8.377,-2.729 14.942,-2.729s11.75,1.484 14.943,2.729c2.701,1.052 4.446,3.614 4.446,6.525l0,10.602l0.001,0z"/>
       <path id="svg_63" d="m244.491,281.621c-1.402,-1.45 -12.703,-1.455 -14.106,-0.022c0.002,-0.002 0.238,-0.244 0.22,-0.815l-4.013,0.126c0.328,-3.672 5.083,-4.332 10.808,-4.412c9.47,0 10.884,2.725 10.884,4.349l-4.015,0c0,0.544 0.22,0.773 0.222,0.774z"/>
       <path id="svg_64" d="m294.616,273.767l-13.578,0c-1.108,0 -2.007,-0.899 -2.007,-2.007s0.899,-2.007 2.007,-2.007l13.578,0c2.635,0.043 2.642,3.969 0,4.014z"/>
       <path id="svg_65" d="m193.761,273.767l-13.577,0c-2.634,-0.044 -2.641,-3.969 0,-4.015l13.577,0c2.635,0.044 2.642,3.97 0,4.015z"/>
      </g>
     </g>
     <path id="svg_66" fill="#98cbef" d="m223.247,280.739c0,-4.339 -3.517,-7.856 -7.856,-7.856c-10.409,0.385 -10.406,15.328 0,15.711c4.339,0.001 7.856,-3.516 7.856,-7.855z"/>
     <path id="svg_67" fill="#98cbef" d="m267.264,280.739c0,-4.339 -3.517,-7.856 -7.856,-7.856c-10.409,0.385 -10.406,15.328 0,15.711c4.339,0.001 7.856,-3.516 7.856,-7.855z"/>
     <g id="svg_68">
      <path id="svg_69" fill="#122894" d="m222.711,283.672c0,-4.042 -3.277,-7.319 -7.319,-7.319c-9.689,0.335 -9.686,14.305 0,14.638c4.042,0 7.319,-3.277 7.319,-7.319z"/>
     </g>
     <path id="svg_70" fill="#e8f3fc" d="m220.511,283.823c3.388,-3.564 -1.708,-8.66 -5.272,-5.272c-3.388,3.565 1.709,8.66 5.272,5.272z"/>
     <path id="svg_71" fill="#122894" d="m266.728,283.672c0,-4.042 -3.277,-7.319 -7.319,-7.319c-9.689,0.335 -9.686,14.305 0,14.638c4.042,0 7.319,-3.277 7.319,-7.319z"/>
     <path id="svg_72" fill="#e8f3fc" d="m264.528,283.823c3.388,-3.564 -1.708,-8.66 -5.272,-5.272c-3.388,3.565 1.709,8.66 5.272,5.272z"/>
    </g>
   </g>
   <g id="svg_73">
    <g id="svg_74">
     <path id="svg_75" fill="#ebd9ea" d="m471.956,170.474c6.614,6.517 6.744,17.588 0.003,24.245c0,0 -103.191,103.191 -103.191,103.191c-1.678,1.678 -3.614,2.934 -5.684,3.77c-6.318,2.533 -13.591,1.186 -18.558,-3.77c-6.588,-6.482 -6.65,-17.33 -0.337,-23.898c0.068,-0.175 103.36,-103.296 103.527,-103.534c6.631,-6.724 17.705,-6.624 24.24,-0.004z"/>
     <path id="svg_76" fill="#c2aacf" d="m476.953,181.676c0.254,4.686 -1.411,9.46 -4.994,13.043l-103.191,103.19c-3.474,3.482 -8.22,5.253 -13.043,4.994c-0.276,-4.57 1.421,-9.319 4.657,-12.699c0.036,-0.07 103.382,-103.371 103.527,-103.533c3.59,-3.578 8.311,-5.243 13.044,-4.995z"/>
     <path id="svg_77" fill="#fff" d="m460.979,165.499c0.326,4.765 -1.344,9.622 -4.978,13.262c0,0 -103.191,103.191 -103.191,103.191c-3.468,3.502 -8.441,5.334 -13.268,4.978c-0.315,-4.716 1.338,-9.436 4.647,-12.919c0.037,-0.072 103.381,-103.369 103.527,-103.533c3.646,-3.63 8.452,-5.299 13.263,-4.979z"/>
    </g>
    <path id="svg_78" fill="#c0405c" d="m391.4047,226.74311l9.30271,-9.30271l8.28251,8.28251l-9.30271,9.30271l-8.28251,-8.28251z"/>
    <path id="svg_79" fill="#e9465e" d="m396.05603,222.09181l4.65135,-4.65135l8.28251,8.28251l-4.65135,4.65135l-8.28251,-8.28251z"/>
    <g id="svg_80">
     <g id="svg_81">
      <path id="svg_82" fill="#f39e22" d="m443.371,246.817c1.431,-0.43 12.861,-3.894 13.948,-4.219c1.151,-0.347 1.124,-1.985 -0.036,-2.296l-20.908,-5.602l-5.121,19.113l20.908,5.602c1.16,0.311 2.003,-1.095 1.179,-1.971c-0.741,-0.782 -8.99,-9.587 -9.97,-10.627"/>
      <path id="svg_83" fill="#fad98f" d="m434.904,251.705l16.057,4.303c0.348,0.093 0.666,0.033 0.918,-0.121l-8.508,-9.07l11.903,-3.601c-0.141,-0.259 -0.386,-0.47 -0.734,-0.563l-16.057,-4.303l-3.579,13.355z"/>
     </g>
     <g id="svg_84">
      <path id="svg_85" fill="#f39e22" d="m420.921,269.377c1.088,1.024 9.802,9.191 10.628,9.97c0.876,0.823 2.282,-0.019 1.971,-1.179l-5.602,-20.908l-19.113,5.121l5.602,20.908c0.311,1.16 1.949,1.187 2.296,0.036c0.306,-1.034 3.807,-12.579 4.218,-13.948"/>
      <path id="svg_86" fill="#fad98f" d="m412.454,264.488l4.303,16.057c0.093,0.348 0.304,0.593 0.563,0.734l3.601,-11.903l9.07,8.508c0.154,-0.252 0.214,-0.57 0.121,-0.918l-4.303,-16.057l-13.355,3.579z"/>
     </g>
    </g>
    <g id="svg_87">
     <g id="svg_88">
      <path id="svg_89" fill="#c0405c" d="m432.478,227.532c-8.532,-8.532 -22.365,-8.532 -30.896,0c-19.678,21.305 9.6,50.572 30.897,30.896c8.531,-8.531 8.531,-22.364 -0.001,-30.896z"/>
      <path id="svg_90" fill="#e9465e" d="m430.335,229.676c-7.348,-7.348 -19.262,-7.348 -26.61,0c-16.948,18.35 8.268,43.556 26.61,26.61c7.348,-7.348 7.348,-19.262 0,-26.61z"/>
      <path id="svg_91" fill="#f39e22" d="m427.138,232.871c5.521,5.462 5.622,14.645 0,20.217c-13.892,12.838 -33.026,-6.173 -20.284,-20.144c5.425,-5.626 14.82,-5.658 20.284,-0.073z"/>
      <path id="svg_92" fill="#f9c744" d="m427.138,232.871c0.356,0.356 0.687,0.725 0.998,1.106c1.167,3.862 0.226,8.224 -2.826,11.275c-8.915,8.639 -22.99,-0.946 -18.456,-12.308c5.425,-5.626 14.82,-5.658 20.284,-0.073z"/>
      <path id="svg_93" fill="#fad98f" d="m421.254,229.542c5.349,5.689 -2.667,13.711 -8.357,8.357c-2.308,-2.308 -2.311,-6.049 -0.003,-8.357c2.281,-1.373 5.479,-0.896 8.001,-0.328c0.123,0.1 0.244,0.214 0.359,0.328z"/>
     </g>
    </g>
   </g>
  </g>
 </g>
</svg>