<svg width="512" height="512" xmlns="http://www.w3.org/2000/svg">

 <g>
  <title>background</title>
  <rect fill="none" id="canvas_background" height="602" width="802" y="-1" x="-1"/>
 </g>
 <g>
  <title>Layer 1</title>
  <path id="svg_1" fill="#ff6659" d="m217.21,353.387c-7.692,-7.987 -17.642,-13.886 -29.026,-16.614l-41.143,-9.859l-0.017,0.027l0.017,-0.027l0,-25.117l-50.242,0l0,25.198l0,0l-41.036,9.803c-26.833,6.41 -45.763,30.393 -45.763,57.981l0,67.221l90.962,0l116.248,-108.613z"/>
  <polygon id="svg_2" fill="#FFB487" points="148.12,301.797 148.12,327.592 122.046,390.047 96,327.681 96,301.797 "/>
  <path id="svg_3" fill="#FFCDAC" d="m177.955,215.261l0,34.79c0,30.928 -25.073,56 -56.002,56l0,0l0,0c-30.929,0 -56.002,-25.072 -56.002,-56l0,-34.79l112.004,0l0,0z"/>
  <path id="svg_4" fill="#babdbe" d="m177.955,226.266l0,-13.481c0,-30.928 -25.073,-56 -56.002,-56l0,0c-30.929,0 -56.002,25.072 -56.002,56l0,13.481l38.603,0c24.174,0 47.895,-6.563 68.631,-18.988l0,0"/>
  <path id="svg_5" fill="#9a0007" d="m294.79,353.387c7.692,-7.987 17.642,-13.886 29.026,-16.614l41.143,-9.859l0.017,0.027l-0.017,-0.027l0,-25.117l50.242,0l0,25.198l0,0l41.036,9.803c26.833,6.41 45.763,30.393 45.763,57.981l0,67.221l-90.962,0l-116.248,-108.613z"/>
  <path id="svg_6" fill="#d32f2f" d="m220.953,352.403l-57.306,13.732c-37.348,8.95 -63.685,42.343 -63.685,80.747l0,55.118l311.87,0l0,-55.07c0,-38.426 -26.366,-71.832 -63.742,-80.761l-57.157,-13.654l-69.98,-0.112z"/>
  <g id="svg_7">
   <polygon id="svg_8" fill="#FFB487" points="416,301.797 416,327.681 389.954,390.047 363.88,327.592 363.88,301.797  "/>
   <path id="svg_9" fill="#FFB487" d="m256.01,432.738l37.31,-84.708c-2.769,-4.65 -4.347,-10.062 -4.347,-15.792l0,-8.142l-65.966,0l0,8.143c0,5.72 -1.572,11.124 -4.333,15.769l37.336,84.73z"/>
  </g>
  <path id="svg_10" fill="#FFCDAC" d="m334.001,191.525l0,53.819c0,43.078 -34.922,78.001 -78,78.001l0,0l0,0c-43.078,0 -78,-34.922 -78,-78.001l0,-53.819l156,0z"/>
  <path id="svg_11" fill="#eceff1" d="m256,115.437l0,0c-43.079,0 -78.001,34.922 -78.001,78l0,18.777l38.137,0c25.351,0 49.402,-11.225 65.684,-30.656l0,0l52.179,30.656l0,-18.777c0.002,-43.078 -34.92,-78 -77.999,-78z"/>
  <path id="svg_12" fill="#FFCDAC" d="m334.045,215.261l0,34.79c0,30.928 25.073,56 56.002,56l0,0l0,0c30.929,0 56.002,-25.072 56.002,-56l0,-34.79l-112.004,0l0,0z"/>
  <path id="svg_13" fill="#babdbe" d="m334.045,226.266l0,-13.481c0,-30.928 25.073,-56 56.002,-56l0,0c30.929,0 56.002,25.072 56.002,56l0,13.481l-38.603,0c-24.174,0 -47.895,-6.563 -68.631,-18.988l0,0"/>
  <path id="svg_14" d="m255.74,492c-2.631,0 -5.211,1.07 -7.07,2.93c-1.86,1.86 -2.93,4.44 -2.93,7.07s1.069,5.21 2.93,7.07c1.859,1.86 4.439,2.93 7.07,2.93c2.63,0 5.21,-1.07 7.069,-2.93c1.86,-1.86 2.931,-4.44 2.931,-7.07s-1.07,-5.21 -2.931,-7.07c-1.859,-1.86 -4.439,-2.93 -7.069,-2.93z"/>
  <path id="svg_15" d="m458.56,327.071l-33.358,-7.969l0,-13.232c18.516,-11.703 30.848,-32.342 30.848,-55.818l0,-37.267c0,-36.393 -29.608,-66 -66.002,-66c-19.632,0 -37.279,8.626 -49.38,22.275c-10.598,-36.703 -44.495,-63.623 -84.564,-63.623l-0.001,0c-40.134,0 -74.077,27.005 -84.616,63.798c-12.104,-13.75 -29.816,-22.45 -49.532,-22.45c-36.394,0 -66.002,29.608 -66.002,66l0,37.267c0,23.477 12.332,44.116 30.848,55.818l0,13.232l-33.358,7.969c-31.467,7.516 -53.443,35.359 -53.443,67.708l0,67.221c0,5.523 4.478,10 10,10l79.963,0l0,30c0,5.523 4.478,10 10,10l109.704,0c5.522,0 10,-4.477 10,-10s-4.478,-10 -10,-10l-44.643,0l0,-44.012c0,-5.523 -4.478,-10 -10,-10s-10,4.477 -10,10l0,44.012l-35.062,0l0,-45.118c0,-33.914 23.034,-63.119 56.015,-71.022l49.183,-11.786l31.646,71.996c1.596,3.631 5.187,5.976 9.153,5.976l0.001,0c3.966,0 7.558,-2.344 9.154,-5.975l31.614,-71.891l49.04,11.715c33.011,7.885 56.065,37.096 56.065,71.034l0,11.159c-0.511,1.202 -0.795,2.523 -0.795,3.911s0.284,2.71 0.795,3.911l0,26.09l-34.857,0l0,-44.012c0,-5.523 -4.478,-10 -10,-10s-10,4.477 -10,10l0,44.012l-48.975,0c-5.522,0 -10,4.477 -10,10s4.478,10 10,10l113.832,0c5.522,0 10,-4.477 10,-10l0,-30l80.167,0c5.522,0 10,-4.477 10,-10l0,-67.221c0,-32.349 -21.976,-60.192 -53.44,-67.708zm-53.336,0.464l-15.268,36.559l-15.062,-36.078c0.04,-0.363 0.069,-0.728 0.069,-1.094c0,-0.093 -0.001,-0.187 -0.004,-0.28l0,-12.35c4.85,1.139 9.896,1.76 15.088,1.76c5.215,0 10.285,-0.627 15.154,-1.776l0,12.718c0,0.182 0.013,0.361 0.023,0.541zm-194.271,8.033c-6.278,-3.894 -13.166,-6.777 -20.438,-8.519l-33.474,-8.021l0,-13.115c8.325,-5.247 15.396,-12.299 20.667,-20.607c7.539,14.729 19.11,27.063 33.245,35.547l0,14.715zm-22.853,-90.223l0,-23.13l28.138,0c25.524,0 49.715,-10.088 67.587,-27.941l40.221,23.629l0,29.789c-1.244,36.411 -31.233,65.654 -67.943,65.654c-37.498,-0.001 -68.003,-30.506 -68.003,-68.001zm112.834,75.696c14.222,-8.455 25.874,-20.798 33.471,-35.559c5.26,8.231 12.289,15.22 20.554,20.431l0,13.115l-33.474,8.021c-7.316,1.753 -14.243,4.662 -20.552,8.592l0,-14.6l0.001,0zm89.113,-24.989c-25.365,0 -46.002,-20.636 -46.002,-46l0,-1.632c0.035,-1.021 0.06,-26.888 0.06,-26.888c19.659,9.668 41.332,14.735 63.342,14.735l28.603,0l0,13.786c-0.001,25.364 -20.638,45.999 -46.003,45.999zm0,-129.267c25.365,0 46.002,20.636 46.002,46l0,2.476l0,1.005l-28.603,0c-21.606,0 -42.837,-5.673 -61.548,-16.426c5.606,-19.082 23.276,-33.055 44.149,-33.055zm-201.947,26.653c0,-37.496 30.506,-68 68.003,-68c37.496,0 68.002,30.505 68.002,68l0,1.304l-37.115,-21.805c-4.211,-2.475 -9.593,-1.544 -12.73,2.199c-14.42,17.208 -35.568,27.078 -58.021,27.078l-28.139,0l0,-8.776zm-112.149,19.347c0,-25.365 20.637,-46 46.002,-46c20.873,0 38.543,13.973 44.148,33.056c-18.711,10.752 -39.941,16.426 -61.548,16.426l-28.602,0l0,-1.005l0,-2.477zm0,23.481l28.603,0c22.032,0 43.727,-5.076 63.401,-14.763l0,28.549c0,25.365 -20.637,46 -46.002,46s-46.002,-20.636 -46.002,-46c0,0 0,-13.786 0,-13.786zm46.002,79.786c5.192,0 10.238,-0.622 15.088,-1.76l0,12.07c-0.011,0.188 -0.016,0.376 -0.016,0.564c0,0.315 0.03,0.628 0.06,0.941l-15.13,36.227l-15.187,-36.379c0.017,-0.239 0.031,-0.478 0.031,-0.72l0,-12.718c4.869,1.148 9.939,1.775 15.154,1.775zm-31.99,130.83l0,5.118l-29.963,0l0,-44.429c0,-5.523 -4.478,-10 -10,-10s-10,4.477 -10,10l0,44.429l-20,0l0,-57.221c0,-23.055 15.662,-42.898 38.087,-48.255l31.698,-7.573l20.688,49.555c-12.939,16.074 -20.51,36.448 -20.51,58.376zm71.354,-90.471c-5.905,1.415 -11.548,3.384 -16.906,5.812l9.74,-23.322l31.703,7.597c2.459,0.589 4.855,1.368 7.174,2.314l-31.711,7.599zm94.645,50.788l-25.009,-56.897l0,-20.624c7.972,2.382 16.413,3.667 25.149,3.667c8.62,0 16.953,-1.252 24.831,-3.573l0,20.641l-24.971,56.786zm62.827,-58.311c2.376,-0.98 4.833,-1.785 7.357,-2.39l31.626,-7.578l9.78,23.426c-5.427,-2.472 -11.148,-4.471 -17.138,-5.902l-31.625,-7.556zm173.211,103.112l-20,0l0,-44.429c0,-5.523 -4.478,-10 -10,-10s-10,4.477 -10,10l0,44.429l-30.167,0l0,-5.07c0,-21.899 -7.546,-42.245 -20.448,-58.305l20.753,-49.692l31.775,7.591c22.425,5.357 38.087,25.2 38.087,48.255l0,57.221z"/>
  <path id="svg_16" d="m222.46,231.25c-2.63,0 -5.21,1.07 -7.07,2.93c-1.86,1.86 -2.93,4.44 -2.93,7.07s1.069,5.21 2.93,7.07s4.44,2.93 7.07,2.93c2.64,0 5.21,-1.07 7.069,-2.93c1.87,-1.86 2.931,-4.44 2.931,-7.07s-1.061,-5.21 -2.931,-7.07c-1.859,-1.86 -4.439,-2.93 -7.069,-2.93z"/>
  <path id="svg_17" d="m289.33,251.25c2.63,0 5.21,-1.07 7.069,-2.93c1.87,-1.86 2.931,-4.44 2.931,-7.07s-1.061,-5.21 -2.931,-7.07c-1.859,-1.86 -4.439,-2.93 -7.069,-2.93s-5.21,1.07 -7.07,2.93c-1.86,1.86 -2.93,4.44 -2.93,7.07s1.069,5.21 2.93,7.07s4.44,2.93 7.07,2.93z"/>
  <path id="svg_18" d="m275.247,267.842c-3.906,-3.905 -10.236,-3.905 -14.143,0c-2.957,2.957 -7.768,2.957 -10.725,0c-3.906,-3.905 -10.236,-3.905 -14.143,0c-3.905,3.905 -3.905,10.237 0,14.143c5.378,5.377 12.441,8.066 19.505,8.066c7.064,0 14.127,-2.688 19.505,-8.066c3.906,-3.906 3.906,-10.238 0.001,-14.143z"/>
  <path id="svg_19" d="m406.62,74l6.859,0c5.522,0 10,-4.477 10,-10s-4.478,-10 -10,-10l-6.859,0c-5.522,0 -10,4.477 -10,10s4.478,10 10,10z"/>
  <path id="svg_20" d="m455.141,74l6.859,0c5.522,0 10,-4.477 10,-10s-4.478,-10 -10,-10l-6.859,0c-5.522,0 -10,4.477 -10,10s4.477,10 10,10z"/>
  <path id="svg_21" d="m434.311,101.69c5.522,0 10,-4.477 10,-10l0,-6.859c0,-5.523 -4.478,-10 -10,-10s-10,4.477 -10,10l0,6.859c0,5.523 4.477,10 10,10z"/>
  <path id="svg_22" d="m434.311,53.169c5.522,0 10,-4.477 10,-10l0,-6.859c0,-5.523 -4.478,-10 -10,-10s-10,4.477 -10,10l0,6.859c0,5.523 4.477,10 10,10z"/>
  <path id="svg_23" d="m49.444,74l6.858,0c5.522,0 10,-4.477 10,-10s-4.478,-10 -10,-10l-6.858,0c-5.522,0 -10,4.477 -10,10s4.478,10 10,10z"/>
  <path id="svg_24" d="m97.965,74l6.858,0c5.522,0 10,-4.477 10,-10s-4.478,-10 -10,-10l-6.858,0c-5.522,0 -10,4.477 -10,10s4.477,10 10,10z"/>
  <path id="svg_25" d="m77.134,101.69c5.522,0 10,-4.477 10,-10l0,-6.859c0,-5.523 -4.478,-10 -10,-10s-10,4.477 -10,10l0,6.859c0,5.523 4.477,10 10,10z"/>
  <path id="svg_26" d="m77.134,53.169c5.522,0 10,-4.477 10,-10l0,-6.859c0,-5.523 -4.478,-10 -10,-10s-10,4.477 -10,10l0,6.859c0,5.523 4.477,10 10,10z"/>
  <path id="svg_27" d="m256,84.397c5.522,0 10,-4.477 10,-10l0,-26.31c0,-5.523 -4.478,-10 -10,-10s-10,4.477 -10,10l0,26.31c0,5.523 4.478,10 10,10z"/>
  <path id="svg_28" d="m256,20c2.63,0 5.21,-1.07 7.069,-2.93c1.861,-1.86 2.931,-4.44 2.931,-7.07s-1.07,-5.21 -2.931,-7.07c-1.859,-1.86 -4.439,-2.93 -7.069,-2.93s-5.21,1.07 -7.07,2.93c-1.861,1.86 -2.93,4.44 -2.93,7.07s1.069,5.21 2.93,7.07s4.44,2.93 7.07,2.93z"/>
  <path id="svg_29" d="m206.813,54.262c1.953,1.953 4.512,2.929 7.071,2.929s5.118,-0.976 7.071,-2.929c3.905,-3.905 3.905,-10.237 0,-14.143l-14.634,-14.634c-3.906,-3.905 -10.236,-3.905 -14.143,0c-3.905,3.905 -3.905,10.237 0,14.143l14.635,14.634z"/>
  <path id="svg_30" d="m297.626,57.13c2.56,0 5.118,-0.976 7.071,-2.929l15.123,-15.123c3.905,-3.905 3.905,-10.237 0,-14.143c-3.906,-3.905 -10.236,-3.905 -14.143,0l-15.123,15.123c-3.905,3.905 -3.905,10.237 0,14.143c1.954,1.953 4.512,2.929 7.072,2.929z"/>
  <g id="svg_31"/>
  <g id="svg_32"/>
  <g id="svg_33"/>
  <g id="svg_34"/>
  <g id="svg_35"/>
  <g id="svg_36"/>
  <g id="svg_37"/>
  <g id="svg_38"/>
  <g id="svg_39"/>
  <g id="svg_40"/>
  <g id="svg_41"/>
  <g id="svg_42"/>
  <g id="svg_43"/>
  <g id="svg_44"/>
  <g id="svg_45"/>
 </g>
</svg>