<svg width="512" height="512" xmlns="http://www.w3.org/2000/svg">

 <g>
  <title>background</title>
  <rect fill="none" id="canvas_background" height="602" width="802" y="-1" x="-1"/>
 </g>
 <g>
  <title>Layer 1</title>
  <g id="BULINE">
   <circle r="256" fill="#ff6659" cy="256" cx="256" id="XMLID_2087_"/>
  </g>
  <g id="Icons">
   <g id="XMLID_980_">
    <circle r="147.814" fill="#e0e0e0" cy="255.906" cx="255.847" id="XMLID_1008_"/>
    <path fill="#eceff1" d="m291.263,398.537c-11.347,2.799 -23.215,4.278 -35.419,4.278c-81.63,0 -147.811,-66.181 -147.811,-147.819c0,-81.63 66.181,-147.811 147.811,-147.811c12.204,0 24.072,1.479 35.419,4.278c-64.534,15.86 -112.4,74.107 -112.4,143.533s47.866,127.681 112.4,143.541z" id="XMLID_1007_"/>
    <g id="XMLID_983_">
     <path fill="#babdbe" d="m255.847,89.001c-91.532,0 -165.999,74.467 -165.999,165.999s74.467,165.999 165.999,165.999s165.999,-74.467 165.999,-165.999s-74.468,-165.999 -165.999,-165.999zm131.177,104.288l-40.772,0c-4.528,-19.671 -11.243,-37.779 -19.928,-53.355c-3.519,-6.311 -7.288,-12.072 -11.27,-17.27c31.586,14.187 57.203,39.36 71.97,70.625zm13.809,61.711c0,18.332 -3.429,35.876 -9.664,52.036l-42.893,0c3.135,-16.572 4.77,-34.094 4.77,-52.036c0,-13.901 -0.983,-27.548 -2.882,-40.699l44.845,0c3.785,12.918 5.824,26.574 5.824,40.699zm-289.973,0c0,-14.125 2.039,-27.781 5.823,-40.699l44.846,0c-1.899,13.151 -2.882,26.798 -2.882,40.699c0,17.943 1.635,35.464 4.77,52.036l-42.893,0c-6.235,-16.16 -9.664,-33.704 -9.664,-52.036zm68.8,0c0,-14.061 1.122,-27.729 3.193,-40.699l62.488,0l0,92.735l-60.403,0c-3.399,-16.239 -5.278,-33.808 -5.278,-52.036zm86.693,-143.533c25.393,7.007 47.211,38.903 58.161,81.822l-58.161,0l0,-81.822zm-21.013,0l0,81.822l-58.16,0c10.95,-42.919 32.768,-74.815 58.16,-81.822zm0,216.582l0,70.484c-23.101,-6.375 -43.241,-33.35 -54.933,-70.484l54.933,0zm21.013,70.484l0,-70.484l54.934,0c-11.692,37.134 -31.833,64.109 -54.934,70.484zm0,-91.497l0,-92.735l62.488,0c2.071,12.97 3.193,26.637 3.193,40.699c0,18.228 -1.88,35.797 -5.278,52.036l-60.403,0zm-69.714,-184.372c-3.982,5.198 -7.751,10.959 -11.27,17.27c-8.684,15.576 -15.4,33.684 -19.927,53.355l-40.772,0c14.767,-31.265 40.384,-56.438 71.969,-70.625zm-65.987,205.385l37.688,0c4.325,15.309 10.04,29.482 17.029,42.018c3.519,6.311 7.288,12.072 11.27,17.269c-27.67,-12.428 -50.758,-33.287 -65.987,-59.287zm184.403,59.287c3.982,-5.198 7.751,-10.958 11.269,-17.269c6.989,-12.535 12.704,-26.709 17.029,-42.018l37.688,0c-15.228,25.999 -38.316,46.859 -65.986,59.287z" id="XMLID_992_"/>
     <g id="svg_1" fill="#252538">
      <path fill="#8f9191" d="m165.441,193.289l-3.912,21.012l-8.319,0l3.782,-21.012l8.449,0z" id="XMLID_991_"/>
      <path fill="#8f9191" d="m163.417,307.036l4.923,21.013l-8.196,0l-4.623,-21.013l7.896,0z" id="XMLID_990_"/>
      <path fill="#8f9191" d="m238.871,193.289l6.469,0l0,21.013l-6.469,0l0,-21.013z" id="XMLID_989_"/>
      <path fill="#8f9191" d="m238.871,307.036l6.469,0l0,21.013l-6.469,0l0,-21.013z" id="XMLID_988_"/>
      <path fill="#8f9191" d="m324.513,193.289l4.328,21.012l-8.896,0l-3.993,-21.012l8.561,0z" id="XMLID_987_"/>
      <path fill="#8f9191" d="m326.757,307.036l-5.47,21.013l-9.432,0l6.094,-21.013l8.808,0z" id="XMLID_986_"/>
      <path fill="#8f9191" d="m196.638,387.336s25.299,28.042 41.681,32.743c0,0 -28.204,-3.376 -44.797,-11.222l-6.078,-26.051l9.194,4.53z" id="XMLID_985_"/>
      <path fill="#8f9191" d="m196.638,122.842s25.299,-28.042 41.681,-32.743c0,0 -28.204,3.376 -44.797,11.222l-6.078,26.051l9.194,-4.53z" id="XMLID_984_"/>
     </g>
    </g>
    <ellipse ry="17.543" rx="12.159" fill="#f9f9f9" cy="239.764" cx="374.865" id="XMLID_982_"/>
    <ellipse ry="17.543" rx="12.159" fill="#f2f2f2" cy="260.669" cx="374.865" id="XMLID_981_"/>
   </g>
  </g>
 </g>
</svg>