<svg enable-background="new 0 0 512 512" height="512" viewBox="0 0 512 512" width="512" xmlns="http://www.w3.org/2000/svg"><g id="BULINE"><circle id="XMLID_2087_" cx="256" cy="256" fill="#ea2d88" r="256"/></g><g id="Icons"><g id="XMLID_980_"><circle id="XMLID_1008_" cx="255.847" cy="256.906" fill="#4f4f74" r="147.814"/><path id="XMLID_1007_" d="m291.263 399.537c-11.347 2.799-23.215 4.278-35.419 4.278-81.63 0-147.811-66.181-147.811-147.819 0-81.63 66.181-147.811 147.811-147.811 12.204 0 24.072 1.479 35.419 4.278-64.534 15.86-112.4 74.107-112.4 143.533s47.866 127.681 112.4 143.541z" fill="#444463"/><g id="XMLID_983_"><path id="XMLID_992_" d="m255.847 90.001c-91.532 0-165.999 74.467-165.999 165.999s74.467 165.999 165.999 165.999 165.999-74.467 165.999-165.999-74.468-165.999-165.999-165.999zm131.177 104.288h-40.772c-4.528-19.671-11.243-37.779-19.928-53.355-3.519-6.311-7.288-12.072-11.27-17.27 31.586 14.187 57.203 39.36 71.97 70.625zm13.809 61.711c0 18.332-3.429 35.876-9.664 52.036h-42.893c3.135-16.572 4.77-34.094 4.77-52.036 0-13.901-.983-27.548-2.882-40.699h44.845c3.785 12.918 5.824 26.574 5.824 40.699zm-289.973 0c0-14.125 2.039-27.781 5.823-40.699h44.846c-1.899 13.151-2.882 26.798-2.882 40.699 0 17.943 1.635 35.464 4.77 52.036h-42.893c-6.235-16.16-9.664-33.704-9.664-52.036zm68.8 0c0-14.061 1.122-27.729 3.193-40.699h62.488v92.735h-60.403c-3.399-16.239-5.278-33.808-5.278-52.036zm86.693-143.533c25.393 7.007 47.211 38.903 58.161 81.822h-58.161zm-21.013 0v81.822h-58.16c10.95-42.919 32.768-74.815 58.16-81.822zm0 216.582v70.484c-23.101-6.375-43.241-33.35-54.933-70.484zm21.013 70.484v-70.484h54.934c-11.692 37.134-31.833 64.109-54.934 70.484zm0-91.497v-92.735h62.488c2.071 12.97 3.193 26.637 3.193 40.699 0 18.228-1.88 35.797-5.278 52.036zm-69.714-184.372c-3.982 5.198-7.751 10.959-11.27 17.27-8.684 15.576-15.4 33.684-19.927 53.355h-40.772c14.767-31.265 40.384-56.438 71.969-70.625zm-65.987 205.385h37.688c4.325 15.309 10.04 29.482 17.029 42.018 3.519 6.311 7.288 12.072 11.27 17.269-27.67-12.428-50.758-33.287-65.987-59.287zm184.403 59.287c3.982-5.198 7.751-10.958 11.269-17.269 6.989-12.535 12.704-26.709 17.029-42.018h37.688c-15.228 25.999-38.316 46.859-65.986 59.287z" fill="#32314b"/><g fill="#252538"><path id="XMLID_991_" d="m165.441 194.289-3.912 21.012h-8.319l3.782-21.012z"/><path id="XMLID_990_" d="m163.417 308.036 4.923 21.013h-8.196l-4.623-21.013z"/><path id="XMLID_989_" d="m238.871 194.289h6.469v21.013h-6.469z"/><path id="XMLID_988_" d="m238.871 308.036h6.469v21.013h-6.469z"/><path id="XMLID_987_" d="m324.513 194.289 4.328 21.012h-8.896l-3.993-21.012z"/><path id="XMLID_986_" d="m326.757 308.036-5.47 21.013h-9.432l6.094-21.013z"/><path id="XMLID_985_" d="m196.638 388.336s25.299 28.042 41.681 32.743c0 0-28.204-3.376-44.797-11.222l-6.078-26.051z"/><path id="XMLID_984_" d="m196.638 123.842s25.299-28.042 41.681-32.743c0 0-28.204 3.376-44.797 11.222l-6.078 26.051z"/></g></g><ellipse id="XMLID_982_" cx="374.865" cy="240.764" fill="#5b5b82" rx="12.159" ry="17.543"/><ellipse id="XMLID_981_" cx="374.865" cy="261.669" fill="#6a6a91" rx="12.159" ry="17.543"/></g></g></svg>